<svg width="256" height="256" viewBox="0 0 256 256" fill="none" xmlns="http://www.w3.org/2000/svg">
<g clip-path="url(#clip0)">
<rect width="256" height="256" rx="15" fill="white"/>
<rect width="256" height="256" fill="url(#paint0_linear)"/>
<rect width="6.9344" height="6.9344" rx="3" transform="matrix(-0.707107 0.707107 -0.707341 -0.706873 33.4512 59.3384)" fill="#488CF0"/>
<path fill-rule="evenodd" clip-rule="evenodd" d="M17.0525 50.8598L26.647 41.2654C27.3535 40.5589 27.3533 39.4136 26.6465 38.7073L17.0489 29.116C16.3421 28.4097 15.1965 28.4099 14.4899 29.1164L4.89547 38.7109C4.18895 39.4174 4.18914 40.5627 4.89589 41.269L14.4935 50.8603C15.2003 51.5666 16.346 51.5664 17.0525 50.8598ZM28.5665 43.1836C30.3328 41.4173 30.3323 38.5541 28.5654 36.7884L18.9678 27.1971C17.2009 25.4314 14.3367 25.4318 12.5704 27.1981L2.97594 36.7926C1.20965 38.5589 1.21012 41.4222 2.977 43.1879L12.5746 52.7792C14.3415 54.5449 17.2057 54.5444 18.972 52.7781L28.5665 43.1836Z" fill="#488CF0"/>
<path fill-rule="evenodd" clip-rule="evenodd" d="M47.2335 77.8919L39.4553 70.1162C38.7486 69.4098 37.6029 69.4098 36.8963 70.1162L29.118 77.8919C28.4114 78.5983 28.4114 79.7436 29.1181 80.45L36.8963 88.2257C37.6029 88.9321 38.7486 88.9321 39.4553 88.2257L47.2335 80.45C47.9401 79.7436 47.9401 78.5983 47.2335 77.8919ZM41.3745 68.1976C39.6079 66.4316 36.7437 66.4316 34.9771 68.1976L27.1988 75.9733C25.4323 77.7393 25.4323 80.6026 27.1988 82.3686L34.9771 90.1443C36.7437 91.9103 39.6079 91.9103 41.3745 90.1443L49.1527 82.3686C50.9193 80.6026 50.9193 77.7393 49.1527 75.9733L41.3745 68.1976Z" fill="#488CF0"/>
<path fill-rule="evenodd" clip-rule="evenodd" d="M19.2769 96.0434L-4.76394 72.0105C-5.64723 71.1275 -7.07933 71.1275 -7.96262 72.0105L-32.0034 96.0434C-32.8867 96.9264 -32.8867 98.358 -32.0034 99.241L-7.96262 123.274C-7.07933 124.157 -5.64723 124.157 -4.76394 123.274L19.2769 99.241C20.1602 98.358 20.1602 96.9264 19.2769 96.0434ZM-1.56525 68.8129C-4.21513 66.1639 -8.51143 66.1639 -11.1613 68.8129L-35.2021 92.8457C-37.852 95.4947 -37.852 99.7896 -35.2021 102.439L-11.1613 126.471C-8.51143 129.121 -4.21513 129.121 -1.56525 126.472L22.4756 102.439C25.1254 99.7896 25.1255 95.4947 22.4756 92.8457L-1.56525 68.8129Z" fill="#488CF0"/>
<path fill-rule="evenodd" clip-rule="evenodd" d="M-66.8016 -79.2804C-65.4193 -80.7534 -63.1047 -80.827 -61.6317 -79.4448L50.4082 25.6904C51.8812 27.0726 51.9548 29.3872 50.5726 30.8603C49.1903 32.3333 46.8757 32.4069 45.4026 31.0246L-66.6372 -74.1105C-68.1102 -75.4927 -68.1838 -77.8074 -66.8016 -79.2804Z" fill="#488CF0"/>
<path fill-rule="evenodd" clip-rule="evenodd" d="M-116.038 -173.815C-114.672 -175.304 -112.358 -175.403 -110.87 -174.038L126.626 43.847C128.114 45.2126 128.214 47.5263 126.848 49.0148C125.482 50.5033 123.169 50.6029 121.68 49.2373L-115.815 -168.647C-117.304 -170.013 -117.403 -172.327 -116.038 -173.815Z" fill="#488CF0"/>
<path fill-rule="evenodd" clip-rule="evenodd" d="M-16.0885 -57.0838C-14.7022 -58.5529 -12.3873 -58.62 -10.9182 -57.2337L88.2828 36.377C89.752 37.7634 89.8191 40.0782 88.4327 41.5474C87.0464 43.0165 84.7315 43.0836 83.2624 41.6973L-15.9386 -51.9134C-17.4078 -53.2998 -17.4749 -55.6146 -16.0885 -57.0838Z" fill="#488CF0"/>
<rect width="6.9344" height="6.9344" rx="3" transform="matrix(0.707107 -0.707107 0.70734 0.706873 226.201 197.304)" fill="#488CF0"/>
<path fill-rule="evenodd" clip-rule="evenodd" d="M234.169 216.903L224.276 226.795C223.548 227.523 223.548 228.704 224.277 229.432L234.172 239.321C234.901 240.05 236.082 240.049 236.811 239.321L246.703 229.429C247.431 228.7 247.431 227.52 246.702 226.791L236.807 216.902C236.078 216.174 234.897 216.174 234.169 216.903ZM222.297 224.817C220.476 226.638 220.477 229.59 222.298 231.411L232.194 241.3C234.016 243.12 236.969 243.12 238.79 241.299L248.682 231.407C250.503 229.585 250.503 226.633 248.681 224.813L238.785 214.924C236.964 213.103 234.011 213.104 232.19 214.925L222.297 224.817Z" fill="#488CF0"/>
<path fill-rule="evenodd" clip-rule="evenodd" d="M231.875 170.317L256.662 195.096C257.572 196.006 259.049 196.006 259.96 195.096L284.746 170.318C285.657 169.407 285.657 167.931 284.746 167.021L259.96 142.242C259.049 141.332 257.572 141.332 256.662 142.242L231.875 167.021C230.964 167.931 230.964 169.407 231.875 170.317ZM253.364 198.393C256.096 201.124 260.525 201.124 263.257 198.393L288.044 173.614C290.776 170.883 290.776 166.455 288.044 163.724L263.257 138.945C260.525 136.214 256.096 136.214 253.364 138.945L228.577 163.724C225.845 166.455 225.845 170.883 228.577 173.614L253.364 198.393Z" fill="#488CF0"/>
<path d="M151.808 169.394C151.808 169.597 151.808 169.597 152.012 169.8C152.012 169.597 152.012 169.597 152.215 169.394C152.215 169.191 152.418 169.191 152.418 168.988L155.871 162.488C155.871 162.285 156.074 162.285 156.074 162.285H156.277H157.293V172.847H156.074V165.129C156.074 164.926 156.074 164.926 156.074 164.722C156.074 164.519 156.074 164.519 156.074 164.316L152.418 170.816C152.215 171.019 152.215 171.222 151.808 171.222H151.605C151.402 171.222 151.199 171.019 150.996 170.816L147.34 164.316C147.34 164.519 147.34 164.519 147.34 164.722C147.34 164.926 147.34 164.926 147.34 165.129V172.847H146.121V162.285H147.137C147.34 162.285 147.34 162.285 147.34 162.285C147.34 162.285 147.543 162.285 147.543 162.488L151.199 168.988C151.605 169.191 151.605 169.191 151.808 169.394Z" fill="white"/>
<path d="M171.509 172.847H170.494C170.291 172.847 170.291 172.847 170.088 172.847L169.885 172.644L168.869 170.207H164.197L163.182 172.441C163.182 172.441 163.182 172.644 162.978 172.644C162.978 172.644 162.775 172.847 162.572 172.847H161.557L165.822 162.285H167.244L171.509 172.847ZM164.603 168.988H168.463L166.838 164.722C166.635 164.519 166.635 164.113 166.431 163.707C166.431 163.91 166.228 164.113 166.228 164.316C166.228 164.519 166.025 164.722 166.025 164.722L164.603 168.988Z" fill="white"/>
<path d="M176.791 162.488C176.791 162.488 176.994 162.488 176.994 162.691L183.088 170.613C183.088 170.41 183.088 170.41 183.088 170.207C183.088 170.004 183.088 170.004 183.088 169.8V162.285H184.306V172.847H183.494C183.291 172.847 183.291 172.847 183.291 172.847L183.088 172.644L176.994 164.722C176.994 164.926 176.994 164.926 176.994 165.129C176.994 165.332 176.994 165.332 176.994 165.535V173.05H175.775V162.488H176.588C176.588 162.285 176.588 162.285 176.791 162.488Z" fill="white"/>
<path d="M198.322 172.847H197.306C197.103 172.847 197.103 172.847 196.9 172.847L196.697 172.644L195.681 170.004H191.01L189.994 172.441C189.994 172.441 189.994 172.644 189.791 172.644C189.791 172.644 189.588 172.847 189.385 172.847H188.369L192.635 162.285H194.056L198.322 172.847ZM191.416 168.988H195.275L193.65 164.722C193.447 164.519 193.447 164.113 193.244 163.707C193.244 163.91 193.041 164.113 193.041 164.316C193.041 164.519 192.838 164.722 192.838 164.722L191.416 168.988Z" fill="white"/>
<path d="M206.854 171.832C207.057 171.832 207.464 171.832 207.667 171.832C207.87 171.832 208.073 171.832 208.276 171.628C208.479 171.628 208.682 171.425 208.886 171.425C209.089 171.425 209.292 171.222 209.495 171.222V168.988H207.87H207.667V168.785V167.972H210.917V172.035C210.714 172.238 210.307 172.441 210.104 172.441C209.901 172.644 209.495 172.644 209.089 172.847C208.682 172.847 208.479 173.05 208.073 173.05C207.667 173.05 207.261 173.05 206.854 173.05C206.042 173.05 205.433 172.847 204.823 172.644C204.214 172.441 203.604 172.035 203.198 171.628C202.792 171.222 202.386 170.613 202.183 170.003C201.979 169.394 201.776 168.582 201.776 167.769C201.776 166.957 201.979 166.144 202.183 165.535C202.386 164.926 202.792 164.316 203.198 163.91C203.604 163.504 204.214 163.097 204.823 162.894C205.433 162.691 206.245 162.488 207.057 162.488C207.464 162.488 207.87 162.488 208.276 162.488C208.682 162.488 208.886 162.691 209.292 162.691C209.698 162.894 209.901 162.894 210.104 163.097C210.307 163.301 210.51 163.504 210.917 163.707L210.51 164.316C210.51 164.519 210.307 164.519 210.104 164.519H209.901C209.698 164.519 209.698 164.316 209.495 164.316C209.292 164.316 209.089 164.113 208.886 164.113C208.682 164.113 208.479 163.91 208.073 163.91C207.87 163.91 207.464 163.91 207.057 163.91C206.448 163.91 205.839 163.91 205.433 164.113C205.026 164.316 204.62 164.519 204.214 164.926C203.808 165.332 203.604 165.738 203.401 166.144C203.198 166.754 203.198 167.16 203.198 167.769C203.198 168.379 203.198 168.988 203.401 169.597C203.604 170.207 203.808 170.613 204.214 171.019C204.62 171.425 205.026 171.628 205.433 171.832C205.839 171.628 206.448 171.832 206.854 171.832Z" fill="white"/>
<path d="M222.291 162.285V163.504H217.213V166.957H221.275V167.972H217.213V171.628H222.291V172.847H215.994V162.285H222.291Z" fill="white"/>
<path d="M228.992 168.379V172.847H227.57V162.285H230.617C231.226 162.285 231.836 162.285 232.242 162.488C232.648 162.691 233.055 162.894 233.461 163.098C233.867 163.301 234.07 163.707 234.07 164.113C234.273 164.519 234.273 164.926 234.273 165.332C234.273 165.738 234.273 166.144 234.07 166.347C233.867 166.754 233.867 166.957 233.461 167.16C233.258 167.363 233.055 167.566 232.648 167.769C232.242 167.972 232.039 168.175 231.633 168.175C231.836 168.379 232.039 168.379 232.039 168.582L235.086 172.644H233.867C233.664 172.644 233.461 172.644 233.258 172.441L230.617 168.785C230.617 168.582 230.414 168.582 230.414 168.582C230.414 168.582 230.211 168.582 230.008 168.582H228.992V168.379ZM228.992 167.363H230.414C230.82 167.363 231.226 167.363 231.43 167.16C231.836 167.16 232.039 166.957 232.242 166.754C232.445 166.551 232.648 166.347 232.648 166.144C232.851 165.941 232.851 165.535 232.851 165.332C232.851 164.722 232.648 164.316 232.242 163.91C231.836 163.504 231.226 163.504 230.414 163.504H228.789V167.363H228.992Z" fill="white"/>
<path d="M38.4229 128.675C38.4229 114.036 49.3702 101.837 65.3857 101.837C70.2512 101.837 76.333 103.057 79.7794 105.09V116.882C76.9412 114.443 71.873 112.816 66.8048 112.816C56.0602 112.816 50.5865 119.526 50.5865 128.268C50.5865 137.011 56.4657 144.33 67.2103 144.33C71.6703 144.33 76.333 143.11 79.7794 141.077V152.666C76.5358 154.496 70.2512 155.513 65.5884 155.513C49.3702 155.309 38.4229 143.11 38.4229 128.675Z" fill="white"/>
<path d="M86.8193 102.717H107.019C118.242 102.717 126.199 110.008 126.199 119.729C126.199 125.805 122.322 131.475 117.017 134.716L129.056 153.753H115.385L105.387 137.348H98.4497V153.753H87.0234V102.717H86.8193ZM106.815 127.83C111.508 127.83 114.569 124.387 114.569 120.539C114.569 116.691 111.508 113.248 106.815 113.248H98.2456V127.83H106.815Z" fill="white"/>
<path d="M131.695 128.573C131.695 113.674 143.593 101.837 158.313 101.837C173.034 101.837 184.931 113.878 184.931 128.573C184.931 143.471 173.034 155.513 158.313 155.513C143.593 155.513 131.695 143.471 131.695 128.573ZM173.235 128.573C173.235 119.797 166.782 113.062 158.313 113.062C150.045 113.062 143.391 119.797 143.391 128.573C143.391 137.349 149.844 144.288 158.313 144.288C166.581 144.288 173.235 137.349 173.235 128.573Z" fill="white"/>
<path d="M190.65 102.717H201.913L223.824 134.918V102.717H235.087V153.753H223.824L201.913 121.349V153.753H190.65V102.717Z" fill="white"/>
<path d="M97.5759 94.8495H96.5603C96.3572 94.8495 96.3572 94.8495 96.3572 94.8495C96.3572 94.8495 96.154 94.6463 96.154 94.4432L95.1385 92.0058H90.4667L89.4511 94.4432C89.4511 94.4432 89.4511 94.6463 89.248 94.6463H89.0449H88.0293L92.0917 84.2873H93.5135L97.5759 94.8495ZM90.873 90.9902H94.7322L93.1073 86.7247C92.9041 86.5216 92.9041 86.1154 92.701 85.7091C92.701 85.9122 92.4979 86.1154 92.4979 86.3185C92.4979 86.5216 92.4979 86.7247 92.2948 86.7247L90.873 90.9902Z" fill="white"/>
<path d="M110.778 89.5683C110.778 90.3808 110.575 90.9902 110.372 91.5995C110.169 92.2089 109.762 92.8182 109.356 93.2245C108.95 93.8338 108.341 94.2401 107.731 94.4432C107.122 94.6463 106.513 94.8494 105.7 94.8494H101.841V84.4904H105.7C106.513 84.4904 107.122 84.6935 107.731 84.8966C108.341 85.0997 108.95 85.506 109.356 85.9122C109.762 86.3184 110.169 86.9278 110.372 87.5371C110.575 88.1465 110.778 88.7559 110.778 89.5683ZM109.356 89.5683C109.356 88.959 109.356 88.3496 109.153 87.9434C108.95 87.5371 108.747 86.9278 108.341 86.7247C107.934 86.3184 107.731 86.1153 107.122 85.9122C106.716 85.7091 106.106 85.7091 105.7 85.7091H103.263V93.8338H105.7C106.309 93.8338 106.716 93.8338 107.122 93.6307C107.528 93.4276 107.934 93.2245 108.341 92.8182C108.747 92.412 108.95 92.0058 109.153 91.5995C109.356 90.787 109.356 90.1777 109.356 89.5683Z" fill="white"/>
<path d="M114.028 84.4904H115.044C115.247 84.4904 115.247 84.4904 115.247 84.4904L115.45 84.6935L118.497 92.0058C118.497 92.2089 118.7 92.412 118.7 92.6152C118.7 92.8183 118.903 93.0214 118.903 93.2245C118.903 93.0214 118.903 92.8183 119.106 92.6152C119.106 92.412 119.309 92.2089 119.309 92.0058L122.153 84.6935C122.153 84.6935 122.153 84.4904 122.356 84.4904L122.559 84.2873H123.778L119.513 94.6463H118.294L114.028 84.4904Z" fill="white"/>
<path d="M135.355 94.8494H134.34C134.136 94.8494 134.136 94.8494 134.136 94.8494L133.933 94.6463L132.918 92.2089H128.246L127.23 94.6463C127.23 94.6463 127.23 94.8494 127.027 94.8494H126.824H125.809L129.871 84.4904H131.293L135.355 94.8494ZM128.652 90.9902H132.512L130.887 86.7247C130.683 86.5215 130.683 86.1153 130.48 85.7091C130.48 85.9122 130.277 86.1153 130.277 86.3184C130.277 86.5215 130.277 86.7247 130.074 86.7247L128.652 90.9902Z" fill="white"/>
<path d="M140.638 84.4904C140.638 84.4904 140.841 84.4904 140.841 84.6935L146.731 92.412C146.731 92.2089 146.731 92.2089 146.731 92.0058C146.731 91.8026 146.731 91.8026 146.731 91.5995V84.4904H147.95V94.8494H147.341C147.137 94.8494 147.137 94.8494 147.137 94.8494L146.934 94.6463L140.841 86.7247C140.841 86.9278 140.841 86.9278 140.841 87.1309C140.841 87.334 140.841 87.334 140.841 87.5371V94.8494H139.622V84.4904H140.435C140.435 84.4904 140.435 84.4904 140.638 84.4904Z" fill="white"/>
<path d="M160.543 92.6152H160.746L161.355 93.2245C160.949 93.6308 160.34 94.037 159.73 94.4432C159.121 94.6463 158.308 94.8495 157.496 94.8495C156.683 94.8495 156.074 94.6463 155.465 94.4432C155.059 94.2401 154.449 93.8339 154.043 93.4276C153.637 93.0214 153.23 92.412 153.027 91.8027C152.824 91.1933 152.621 90.3809 152.621 89.5684C152.621 88.7559 152.824 88.1465 153.027 87.3341C153.23 86.5216 153.637 86.1154 154.043 85.7091C154.449 85.3029 155.059 84.8966 155.668 84.6935C156.277 84.4904 157.09 84.2873 157.699 84.2873C158.512 84.2873 159.121 84.4904 159.73 84.6935C160.34 84.8966 160.746 85.3029 161.152 85.7091L160.746 86.3185C160.746 86.3185 160.746 86.3185 160.543 86.5216H160.34H160.136L159.933 86.3185C159.933 86.3185 159.73 86.1154 159.527 86.1154C159.324 86.1154 159.324 85.9122 159.121 85.9122C158.918 85.9122 158.715 85.7091 158.512 85.7091C158.308 85.7091 158.105 85.7091 157.699 85.7091C157.09 85.7091 156.683 85.7091 156.277 85.9122C155.871 86.1154 155.465 86.3185 155.059 86.7247C154.652 87.131 154.449 87.5372 154.246 87.9434C154.043 88.3497 154.043 88.959 154.043 89.5684C154.043 90.1777 154.043 90.7871 154.246 91.1933C154.449 91.5996 154.652 92.2089 155.059 92.412C155.465 92.8183 155.668 93.0214 156.277 93.2245C156.683 93.4276 157.09 93.4276 157.699 93.4276C158.105 93.4276 158.308 93.4276 158.512 93.4276C158.715 93.4276 158.918 93.4276 159.121 93.2245C159.324 93.2245 159.527 93.0214 159.73 93.0214C159.933 92.8183 160.136 92.8183 160.34 92.6152C160.543 92.6152 160.543 92.6152 160.543 92.6152Z" fill="white"/>
<path d="M172.527 84.4904V85.7091H167.652V89.1621H171.715V90.1777H167.652V93.6307H172.527V94.8494H166.23V84.4904H172.527Z" fill="white"/>
<path d="M186.339 89.5683C186.339 90.3808 186.135 90.9902 185.932 91.5995C185.729 92.2089 185.323 92.8182 184.917 93.2245C184.511 93.6307 183.901 94.0369 183.292 94.2401C182.682 94.4432 182.073 94.6463 181.261 94.6463H177.401V84.4904H181.261C182.073 84.4904 182.682 84.6935 183.292 84.8966C183.901 85.0997 184.511 85.506 184.917 85.9122C185.323 86.3184 185.729 86.9278 185.932 87.5371C186.135 88.1465 186.339 88.7559 186.339 89.5683ZM184.917 89.5683C184.917 88.959 184.917 88.3496 184.714 87.9434C184.511 87.5371 184.307 86.9278 183.901 86.7247C183.495 86.3184 183.089 86.1153 182.682 85.9122C182.276 85.7091 181.667 85.7091 181.261 85.7091H178.823V93.8338H181.261C181.87 93.8338 182.276 93.8338 182.682 93.6307C183.089 93.4276 183.495 93.2245 183.901 92.8182C184.307 92.412 184.511 92.0058 184.714 91.5995C184.714 90.787 184.917 90.1777 184.917 89.5683Z" fill="white"/>
<path d="M78.076 85.0997C79.4979 86.5216 80.1072 88.5528 79.4979 90.3808C78.6854 93.2245 75.6386 94.8494 72.7949 94.037C59.3891 90.1777 44.7645 95.2557 36.4367 106.63C34.6086 109.068 31.3587 109.677 28.9213 107.849C26.4839 106.021 25.8745 102.771 27.7026 100.334C38.4679 85.3029 57.7641 78.5999 75.8417 83.6779C76.6542 84.0841 77.4667 84.4904 78.076 85.0997Z" fill="white"/>
<path d="M26.2801 121.052C29.0846 121.052 31.3581 118.778 31.3581 115.974C31.3581 113.169 29.0846 110.896 26.2801 110.896C23.4756 110.896 21.2021 113.169 21.2021 115.974C21.2021 118.778 23.4756 121.052 26.2801 121.052Z" fill="white"/>
<path d="M24.6561 130.802C26.6754 130.802 28.3123 129.165 28.3123 127.145C28.3123 125.126 26.6754 123.489 24.6561 123.489C22.6369 123.489 21 125.126 21 127.145C21 129.165 22.6369 130.802 24.6561 130.802Z" fill="white"/>
<path d="M25.8739 138.723C27.3323 138.723 28.5145 137.541 28.5145 136.083C28.5145 134.624 27.3323 133.442 25.8739 133.442C24.4156 133.442 23.2334 134.624 23.2334 136.083C23.2334 137.541 24.4156 138.723 25.8739 138.723Z" fill="white"/>
<path d="M28.1083 144.411C29.118 144.411 29.9364 143.592 29.9364 142.583C29.9364 141.573 29.118 140.754 28.1083 140.754C27.0987 140.754 26.2803 141.573 26.2803 142.583C26.2803 143.592 27.0987 144.411 28.1083 144.411Z" fill="white"/>
</g>
<defs>
<linearGradient id="paint0_linear" x1="106.533" y1="57.3752" x2="275.512" y2="169.604" gradientUnits="userSpaceOnUse">
<stop stop-color="#737EF7"/>
<stop offset="1" stop-color="#00A1E4"/>
</linearGradient>
<clipPath id="clip0">
<rect width="256" height="256" rx="15" fill="white"/>
</clipPath>
</defs>
</svg>
